# xmcd
# 
# Track frame offsets:
#     150
#     13501
#     23085
#     35265
#     45474
#     52845
#     66940
#     77983
#     90441
#     95193
# 
# Disc length: 1431
# 
# Revision: 0
# Processed by: cddbd v1.5.2PL0 Copyright (c) Steve Scherf et al.
# Submitted via: BonkEnc v1.0.6
# 
DISCID=7105950a
DTITLE=Merle Haggard - Country Outlaws
DYEAR=0
DGENRE=Country
TTITLE0=Right Or Wrong (Merle Haggard)
TTITLE1=Half A Man (Willie Nelson)
TTITLE2=Okie From Muskogee (Merle Haggard)
TTITLE3=White Lightning (Waylon Jennings)
TTITLE4=I'm A Lonesome Fugitive (Merle Haggard)
TTITLE5=I'm The Only Hell Mama Ever Raised (Johnny Paycheck)
TTITLE6=Mama Tried (Merle Haggard)
TTITLE7=She's All I Got (Johnny Paycheck)
TTITLE8=Swinging Doors (Merle Haggard)
TTITLE9=Take This Job And Shove It (Johnny Paycheck)
EXTD=
EXTT0=
EXTT1=
EXTT2=
EXTT3=
EXTT4=
EXTT5=
EXTT6=
EXTT7=
EXTT8=
EXTT9=
PLAYORDER=
